HIERARCHY
ROOT RootJoint
{
    OFFSET   0.000000   0.000000   0.000000
    CHANNELS 6 Xposition Yposition Zposition Xrotation Yrotation Zrotation
    JOINT pelvis_lowerback
    {
        OFFSET   0.000000   0.093605   0.000000
        CHANNELS 3 Xrotation Yrotation Zrotation
        JOINT lowerback_torso
        {
            OFFSET   0.000000   0.100000   0.000000
            CHANNELS 3 Xrotation Yrotation Zrotation
            JOINT torso_head
            {
                OFFSET   0.000000   0.282350   0.000000
                CHANNELS 3 Xrotation Yrotation Zrotation
                End Site
                {
                    OFFSET   0.000000   0.192650   0.000000
                }
            }
            JOINT rTorso_Clavicle
            {
                OFFSET  -0.001000   0.157500   0.000000
                CHANNELS 3 Xrotation Yrotation Zrotation
                JOINT rShoulder
                {
                    OFFSET  -0.117647   0.000000   0.000000
                    CHANNELS 3 Xrotation Yrotation Zrotation
                    JOINT rElbow
                    {
                        OFFSET  -0.245000   0.000000   0.000000
                        CHANNELS 3 Xrotation Yrotation Zrotation
                        JOINT rWrist
                        {
                            OFFSET  -0.240000   0.000000   0.000000
                            CHANNELS 3 Xrotation Yrotation Zrotation
                            End Site
                            {
                                OFFSET  -0.116353  -0.002500   0.000000
                            }
                        }
                    }
                }
            }
            JOINT lTorso_Clavicle
            {
                OFFSET   0.001000   0.157500   0.000000
                CHANNELS 3 Xrotation Yrotation Zrotation
                JOINT lShoulder
                {
                    OFFSET   0.117647   0.000000   0.000000
                    CHANNELS 3 Xrotation Yrotation Zrotation
                    JOINT lElbow
                    {
                        OFFSET   0.245000   0.000000   0.000000
                        CHANNELS 3 Xrotation Yrotation Zrotation
                        JOINT lWrist
                        {
                            OFFSET   0.240000   0.000000   0.000000
                            CHANNELS 3 Xrotation Yrotation Zrotation
                            End Site
                            {
                                OFFSET   0.116353  -0.002500   0.000000
                            }
                        }
                    }
                }
            }
        }
    }
    JOINT rHip
    {
        OFFSET  -0.100000  -0.051395   0.000000
        CHANNELS 3 Xrotation Yrotation Zrotation
        JOINT rKnee
        {
            OFFSET   0.000000  -0.410000   0.000000
            CHANNELS 3 Xrotation Yrotation Zrotation
            JOINT rAnkle
            {
                OFFSET   0.000000  -0.390000   0.000000
                CHANNELS 3 Xrotation Yrotation Zrotation
                JOINT rToeJoint
                {
                    OFFSET   0.000000  -0.050000   0.130000
                    CHANNELS 3 Xrotation Yrotation Zrotation
                    End Site
                    {
                        OFFSET  -0.010000   0.002000   0.060000
                    }
                }
            }
        }
    }
    JOINT lHip
    {
        OFFSET   0.100000  -0.051395   0.000000
        CHANNELS 3 Xrotation Yrotation Zrotation
        JOINT lKnee
        {
            OFFSET   0.000000  -0.410000   0.000000
            CHANNELS 3 Xrotation Yrotation Zrotation
            JOINT lAnkle
            {
                OFFSET   0.000000  -0.390000   0.000000
                CHANNELS 3 Xrotation Yrotation Zrotation
                JOINT lToeJoint
                {
                    OFFSET   0.000000  -0.050000   0.130000
                    CHANNELS 3 Xrotation Yrotation Zrotation
                    End Site
                    {
                        OFFSET   0.010000   0.002000   0.060000
                    }
                }
            }
        }
    }
}
MOTION
Frames: 10
Frame Time:   0.008333
 -2.376719   0.925631   3.975860   0.000000   0.000000   0.000000   0.000000   0.000000   0.000000   0.000000   0.000000   0.000000   0.000000   0.000000   0.000000   0.000000   0.000000   0.000000   0.000000   0.000000   0.000000   0.000000   0.000000   0.000000   0.000000   0.000000   0.000000   0.000000   0.000000   0.000000   0.000000   0.000000   0.000000   0.000000   0.000000   0.000000   0.000000   0.000000   0.000000   0.000000   0.000000   0.000000   0.000000   0.000000   0.000000   0.000000   0.000000   0.000000   0.000000   0.000000   0.000000   0.000000   0.000000   0.000000   0.000000   0.000000   0.000000   0.000000   0.000000   0.000000   0.000000   0.000000   0.000000
 -2.375475   0.925883   3.975559  -1.000976  -0.561283   0.692073   1.558989   0.386359  -0.525682  -0.332061  -0.065828  -0.236792   0.042617  -0.079612   0.105448  -0.218028  -0.461235   0.243236  -0.977217   0.063880   1.978438   0.066828   3.594920   0.028856  -0.046824  -1.383786  -2.805327   0.063786   0.797299   0.237300  -0.157441   0.618525  -2.111417   0.062923  -3.728943   0.005513   0.039194   0.768713   2.412541   0.129334   0.051674  -0.884423   3.130653   0.004732  -0.014053  -2.615425  -0.230769   0.015499   0.319104   0.000503  -0.002050   0.081014  -0.260926  -1.048728   3.263259   0.009272  -0.023738   0.833780  -0.616754  -0.086225   0.119038   0.000462  -0.001498
 -2.373949   0.926796   3.975423  -2.245228  -0.898466   1.588474   3.133507   0.654545  -1.162473  -0.488304  -0.160686  -0.530388   0.158093  -0.170306   0.183737  -0.429327  -0.874170   1.177154  -1.920088   0.182611   4.374480   0.156321   7.311515   0.053677  -0.112837  -1.783374  -4.908857   0.126916   1.561809  -0.151940  -0.292217   1.159589  -4.564503   0.145894  -7.556759   0.007920   0.111901   0.611424   4.179098   0.557864   0.055046  -1.992675   6.676904   0.008130  -0.021999  -5.044132  -0.461477   0.009307   0.586973   0.000862  -0.002940  -0.067506  -0.315398  -2.061010   6.210785   0.007779  -0.029990   0.939297  -0.901955   0.094457  -3.449484   0.002929   0.020638
 -2.372102   0.927825   3.975824  -3.580144  -1.350751   2.501857   4.576304   0.991402  -1.722233  -0.601095  -0.171195  -0.804401   0.289551  -0.254024   0.243049  -0.614340  -1.211836   2.498466  -2.811834   0.298707   6.952800   0.247437  11.052007   0.078344  -0.173645  -1.881681  -6.207618   0.197900   2.291006  -0.967175  -0.392347   1.676330  -7.193571   0.227440 -11.390129   0.002674   0.192505   0.261457   5.176310   1.204539   0.066764  -3.112713  10.162281   0.008709  -0.031112  -7.300436  -0.673951  -0.004269   0.862962   0.001109  -0.003867  -0.291240  -0.416166  -3.045804   9.512069   0.003345  -0.041011   1.308595  -1.244147   0.149138  -7.339358   0.000015   0.048166
 -2.370012   0.928641   3.976717  -4.925324  -1.994582   3.380401   5.866188   1.413079  -2.193586  -0.733008  -0.075673  -1.023928   0.410828  -0.330326   0.297725  -0.769779  -1.486799   4.043336  -3.646887   0.394757   9.594040   0.329825  14.800641   0.103381  -0.240123  -1.890648  -6.903085   0.285637   3.017385  -2.040744  -0.449308   2.198289  -9.881338   0.296285 -15.210677  -0.009483   0.257226  -0.057233   5.589527   1.963540   0.073161  -4.190094  13.488184   0.005964  -0.042656  -9.403696  -0.870409  -0.022567   1.118730   0.001175  -0.004851  -0.545246  -0.588178  -4.002874  12.912535  -0.003689  -0.057895   1.739513  -1.640201   0.169976 -10.525798  -0.005042   0.073163
 -2.367739   0.929053   3.978021  -6.241880  -2.795290   4.210370   7.003208   1.894048  -2.580534  -0.897767   0.104348  -1.181078   0.515334  -0.400678   0.350670  -0.893554  -1.720751   5.709102  -4.421402   0.457711  12.225127   0.398455  18.548813   0.128349  -0.317718  -1.891747  -7.175491   0.397440   3.748404  -3.255478  -0.459517   2.729474 -12.547680   0.346086 -18.970033  -0.026575   0.299725  -0.294200   5.608633   2.776100   0.067479  -5.212865  16.632008   0.000375  -0.054322 -11.366413  -1.052627  -0.045247   1.349233   0.001083  -0.005724  -0.776393  -0.789932  -4.951712  16.211265  -0.012186  -0.075556   2.196515  -2.045064   0.168557 -12.882501  -0.009895   0.087873
 -2.365347   0.928931   3.979615  -7.516449  -3.701836   4.986436   8.007658   2.404201  -2.885975  -1.091182   0.336491  -1.273458   0.601874  -0.465623   0.401912  -0.985598  -1.923914   7.425761  -5.133972   0.485668  14.798871   0.451543  22.292799   0.152521  -0.407371  -1.918604  -7.159304   0.532879   4.465538  -4.528637  -0.427614   3.251076 -15.139511   0.370739 -22.473237  -0.045212   0.329451  -0.510424   5.381520   3.608990   0.049050  -6.171990  19.593802  -0.007169  -0.064063 -13.198518  -1.221421  -0.072092   1.555922   0.000875  -0.006371  -0.985197  -1.006335  -5.901424  19.365652  -0.021175  -0.091213   2.662279  -2.450061   0.152912 -14.652175  -0.013341   0.093976
 -2.363540   0.927402   3.979806  -7.811217  -4.681845   5.725989   8.168898   2.881910  -3.343296  -1.315338   0.721791  -1.214541   0.587013  -0.507917   0.404013  -0.917495  -2.265745   8.664438  -5.507401   0.755273  17.290156   0.475269  26.023879   0.154853  -0.584809  -2.002639  -6.187803   0.848664   5.314258  -5.283161  -0.442135   3.783704 -17.720572   0.379513 -26.249945  -0.061042   0.118900  -0.581269   4.744971   3.143098   0.121206  -7.115071  22.684130  -0.014655  -0.075284 -15.336609  -1.745966  -0.371400   1.769316   0.001224  -0.007829  -2.415981  -1.088738  -6.481313  22.470390  -0.038349  -0.101427   1.014052  -2.626031   0.016743 -13.524152  -0.010853   0.062115
 -2.362064   0.924719   3.979436  -8.047176  -5.663820   6.442793   8.422879   3.343575  -3.836377  -1.496776   1.125427  -1.176709   0.559961  -0.547692   0.401043  -0.847722  -2.552376   9.692671  -5.867323   1.022769  19.535027   0.477750  29.767432   0.151784  -0.742096  -2.060954  -5.216473   1.155611   6.123939  -5.839712  -0.436989   4.292621 -20.028178   0.371564 -30.029440  -0.071210  -0.087469  -0.664370   4.219441   2.627479   0.200262  -8.102276  25.522869  -0.020050  -0.082817 -17.341130  -2.230920  -0.673175   1.932657   0.001449  -0.008340  -3.905233  -1.163754  -6.809505  25.269733  -0.056717  -0.103759  -0.548990  -2.778183  -0.115356 -12.586723  -0.011629   0.039153
 -2.360810   0.920967   3.978721  -8.272251  -6.614366   7.148808   8.747886   3.784387  -4.347646  -1.608644   1.524625  -1.172403   0.544561  -0.585142   0.394452  -0.790564  -2.784992  10.554144  -6.223072   1.290222  21.562842   0.466461  33.523975   0.145625  -0.877864  -2.059887  -4.405572   1.442430   6.870920  -6.264732  -0.424045   4.760912 -22.109614   0.352995 -33.762604  -0.077527  -0.278257  -0.776172   3.860754   2.132969   0.289343  -9.131913  28.149731  -0.023558  -0.086764 -19.216389  -2.674533  -0.973514   2.077212   0.001627  -0.008440  -5.383368  -1.244290  -6.941453  27.832133  -0.073634  -0.100175  -2.011028  -2.912808  -0.243122 -11.732572  -0.013978   0.022324
